<svg height="512pt" viewBox="-3 0 512 512" width="512pt" xmlns="http://www.w3.org/2000/svg"><path d="m373.558594 389.167969h-64.734375c-9.664063 0-17.5-7.835938-17.5-17.5 0-9.664063 7.835937-17.5 17.5-17.5h64.734375c26.867187 0 48.722656-21.859375 48.722656-48.726563v-96.441406c0-9.664062 7.835938-17.5 17.5-17.5 9.667969 0 17.5 7.835938 17.5 17.5v96.441406c0 46.164063-37.558594 83.726563-83.722656 83.726563zm0 0" fill="#fce182"/><path d="m294.316406 7.5h-210.980468c-22.933594 0-41.519532 18.589844-41.519532 41.519531v427.195313h294.019532v-427.195313c0-22.929687-18.589844-41.519531-41.519532-41.519531zm0 0" fill="#7ac5bf"/><path d="m106.335938 7.5h-23c-22.933594 0-41.519532 18.589844-41.519532 41.519531v427.195313h23v-427.195313c0-22.929687 18.585938-41.519531 41.519532-41.519531zm0 0" fill="#72b8b2"/><path d="m335.835938 447.929688h-294.019532c-18.953125 0-34.316406 15.363281-34.316406 34.316406v6.496094c0 8.703124 7.054688 15.757812 15.757812 15.757812h331.136719c8.699219 0 15.753907-7.054688 15.753907-15.757812v-6.496094c0-18.953125-15.363282-34.316406-34.3125-34.316406zm0 0" fill="#ea7988"/><path d="m30.5 488.742188v-6.496094c0-18.953125 15.363281-34.316406 34.316406-34.316406h-23c-18.953125 0-34.316406 15.363281-34.316406 34.316406v6.496094c0 8.703124 7.054688 15.757812 15.757812 15.757812h23c-8.703124 0-15.757812-7.054688-15.757812-15.757812zm0 0" fill="#d26d7a"/><path d="m280.234375 52.957031h-182.820313c-5.601562 0-10.140624 4.539063-10.140624 10.144531v115.074219c0 5.601563 4.539062 10.144531 10.140624 10.144531h182.820313c5.601563 0 10.144531-4.542968 10.144531-10.144531v-115.074219c0-5.601562-4.542968-10.144531-10.144531-10.144531zm0 0" fill="#eef0f1"/><path d="m107.273438 178.175781v-115.074219c0-5.601562 4.539062-10.144531 10.140624-10.144531h-20c-5.601562 0-10.140624 4.542969-10.140624 10.144531v115.074219c0 5.601563 4.539062 10.144531 10.140624 10.144531h20c-5.601562 0-10.140624-4.542968-10.140624-10.144531zm0 0" fill="#d6d8d8"/><path d="m243.46875 293.679688h-48.636719l16.359375-69.855469c.957032-4.554688-5.046875-7.121094-7.675781-3.28125l-75.238281 109.695312c-3.246094 4.746094.15625 11.1875 5.90625 11.1875h48.632812l-16.355468 69.851563c-.957032 4.558594 5.046874 7.121094 7.675781 3.28125l75.238281-109.691406c3.242188-4.75-.15625-11.1875-5.90625-11.1875zm0 0" fill="#fce182"/><path d="m439.78125 191.5c-9.664062 0-17.5 7.835938-17.5 17.5v47.933594c5.621094 1.335937 11.476562 2.066406 17.5 2.066406 6.027344 0 11.878906-.730469 17.5-2.066406v-47.933594c0-9.664062-7.832031-17.5-17.5-17.5zm0 0" fill="#e2ca75"/><path d="m439.78125 164.023438-45 19.023437h-.667969v.28125c0 25.222656 20.445313 45.671875 45.667969 45.671875 25.226562 0 45.671875-20.449219 45.671875-45.671875v-.28125zm0 0" fill="#7ac5bf"/><path d="m409.136719 90.667969c-8.296875 0-15.023438 6.726562-15.023438 15.023437v59.308594h30.042969v-59.3125c0-8.292969-6.722656-15.019531-15.019531-15.019531zm0 0" fill="#d6d8d8"/><path d="m470.429688 90.667969c8.296874 0 15.023437 6.726562 15.023437 15.023437v59.308594h-30.046875v-59.3125c0-8.292969 6.726562-15.019531 15.023438-15.019531zm0 0" fill="#d6d8d8"/><path d="m485.453125 120h-30.046875v45h30.046875zm0 0" fill="#bbbdbd"/><path d="m394.113281 120h30.046875v45h-30.046875zm0 0" fill="#bbbdbd"/><path d="m394.78125 183.046875h-.667969v.28125c0 9.113281 2.675781 17.59375 7.273438 24.71875h76.789062c4.597657-7.125 7.277344-15.605469 7.277344-24.71875v-.28125l-45.671875-19.023437zm0 0" fill="#72b8b2"/><path d="m485.453125 145h-91.339844c-7.015625 0-12.707031 5.6875-12.707031 12.707031v12.632813c0 7.019531 5.691406 12.707031 12.707031 12.707031h91.339844c7.015625 0 12.707031-5.6875 12.707031-12.707031v-12.632813c-.003906-7.019531-5.691406-12.707031-12.707031-12.707031zm0 0" fill="#ea7988"/><path d="m297.878906 178.175781v-115.074219c0-9.730468-7.917968-17.644531-17.644531-17.644531h-182.820313c-9.730468 0-17.644531 7.914063-17.644531 17.644531v115.074219c0 9.730469 7.917969 17.644531 17.644531 17.644531h182.820313c9.730469 0 17.644531-7.917968 17.644531-17.644531zm-203.109375 0v-115.074219c0-1.457031 1.1875-2.644531 2.644531-2.644531h182.820313c1.457031 0 2.644531 1.1875 2.644531 2.644531v115.074219c0 1.457031-1.1875 2.644531-2.644531 2.644531h-182.820313c-1.457031 0-2.644531-1.1875-2.644531-2.644531zm0 0"/><path d="m130.191406 105c-4.140625 0-7.5 3.359375-7.5 7.5v10.613281c0 4.140625 3.359375 7.5 7.5 7.5 4.144532 0 7.5-3.359375 7.5-7.5v-10.613281c0-4.140625-3.355468-7.5-7.5-7.5zm0 0"/><path d="m247.457031 105c-4.140625 0-7.5 3.359375-7.5 7.5v10.613281c0 4.140625 3.359375 7.5 7.5 7.5s7.5-3.359375 7.5-7.5v-10.613281c0-4.140625-3.359375-7.5-7.5-7.5zm0 0"/><path d="m208.230469 116.726562c-3.117188-2.726562-7.855469-2.40625-10.582031.710938-2.132813 2.441406-5.347657 3.839844-8.824219 3.839844-3.472657 0-6.691407-1.398438-8.824219-3.839844-2.726562-3.117188-7.464844-3.4375-10.582031-.710938-3.121094 2.726563-3.4375 7.464844-.710938 10.582032 4.980469 5.699218 12.3125 8.96875 20.117188 8.96875 7.804687 0 15.136719-3.269532 20.117187-8.96875 2.726563-3.117188 2.410156-7.855469-.710937-10.582032zm0 0"/><path d="m159.121094 409.734375c-.738282 3.5.105468 7.070313 2.316406 9.792969 4.917969 6.058594 14.484375 5.699218 18.882812-.726563 0 0 75.167969-109.589843 75.246094-109.703125 6.554688-9.554687-.574218-22.917968-12.097656-22.917968h-39.175781l14.199219-60.644532c.015624-.054687.027343-.109375.039062-.167968 1.53125-7.269532-4.160156-14.191407-11.578125-14.191407-3.882813 0-7.394531 1.867188-9.625 5.125 0 0-75.183594 109.617188-75.246094 109.703125-6.457031 9.417969.488281 22.921875 12.101563 22.921875h39.175781l-14.203125 60.640625c-.011719.054688-.023438.113282-.035156.167969zm-24.28125-75.808594 65.085937-94.894531s-12.390625 52.910156-12.398437 52.9375c-1.054688 4.515625 2.464844 9.210938 7.304687 9.210938h47.976563l-65.085938 94.890624s12.375-52.847656 12.394532-52.933593c1.089843-4.648438-2.539063-9.210938-7.300782-9.210938zm0 0"/><path d="m492.953125 138.960938v-33.273438c0-12.417969-10.105469-22.519531-22.523437-22.519531-12.417969 0-22.523438 10.101562-22.523438 22.519531v31.8125h-16.25v-31.8125c0-12.417969-10.101562-22.519531-22.519531-22.519531s-22.523438 10.101562-22.523438 22.519531v33.273438c-7.4375 2.984374-12.707031 10.253906-12.707031 18.746093v12.632813c0 8.617187 5.429688 15.96875 13.039062 18.871094 1.964844 17.78125 12.730469 32.945312 27.835938 41.027343v75.203125c0 22.730469-18.492188 41.226563-41.222656 41.226563h-30.222656v-297.648438c0-27.027343-21.992188-49.019531-49.019532-49.019531h-39.472656c-4.144531 0-7.5 3.359375-7.5 7.5s3.355469 7.5 7.5 7.5h39.472656c18.757813 0 34.019532 15.261719 34.019532 34.019531v391.414063h-213.492188c-4.144531 0-7.5 3.355468-7.5 7.5 0 4.140625 3.355469 7.5 7.5 7.5h220.992188c14.785156 0 26.8125 12.027344 26.8125 26.8125v6.5c0 4.550781-3.703126 8.253906-8.253907 8.253906h-331.136719c-4.554687 0-8.257812-3.703125-8.257812-8.253906v-6.5c0-14.785156 12.027344-26.8125 26.8125-26.8125h43.03125c4.140625 0 7.5-3.359375 7.5-7.5 0-4.144532-3.359375-7.5-7.5-7.5h-35.53125v-391.414063c0-18.757812 15.261719-34.019531 34.019531-34.019531h141.511719c4.140625 0 7.5-3.359375 7.5-7.5s-3.359375-7.5-7.5-7.5h-141.511719c-27.027343 0-49.019531 21.988281-49.019531 49.019531v392.097657c-19.488281 3.546874-34.3125 20.632812-34.3125 41.128906v6.5c0 12.820312 10.433594 23.253906 23.257812 23.253906h331.132813c12.824219 0 23.257813-10.433594 23.257813-23.257812v-6.496094c0-20.496094-14.828126-37.582032-34.3125-41.128906v-44.449219h30.21875c50.304687 0 91.226562-40.925781 91.226562-91.226563v-75.203125c15.105469-8.082031 25.871094-23.246093 27.835938-41.027343 7.609374-2.902344 13.039062-10.253907 13.039062-18.871094v-12.632813c0-8.492187-5.269531-15.761719-12.703125-18.746093zm-30.046875-33.273438c0-4.148438 3.375-7.519531 7.523438-7.519531 4.148437 0 7.523437 3.375 7.523437 7.519531v31.8125h-15.046875zm-61.292969 0c0-4.148438 3.375-7.519531 7.523438-7.519531 4.144531 0 7.519531 3.375 7.519531 7.519531v31.8125h-15.042969zm48.167969 199.753906c0 42.03125-34.191406 76.226563-76.222656 76.226563h-30.222656v-20h30.222656c31 0 56.222656-25.222657 56.222656-56.226563v-69.882812c6.585938 1.253906 13.414062 1.257812 20 0zm3.59375-86.449218c-8.683594 3.320312-18.496094 3.320312-27.179688.003906-12.179687-4.65625-21.386718-15.375-23.898437-28.449219h74.972656c-2.511719 13.070313-11.71875 23.789063-23.894531 28.445313zm37.28125-48.652344c0 2.871094-2.332031 5.207031-5.203125 5.207031h-91.339844c-2.871093 0-5.207031-2.335937-5.207031-5.207031v-12.632813c0-2.871093 2.335938-5.207031 5.207031-5.207031h91.339844c2.871094 0 5.203125 2.335938 5.203125 5.207031zm0 0"/></svg>